<?xml version="1.0" encoding="UTF-8"?>
<!DOCTYPE svg PUBLIC "-//W3C//DTD SVG 1.1//EN" "http://www.w3.org/Graphics/SVG/1.1/DTD/svg11.dtd">
<!-- Creator: CorelDRAW 2020 (64-Bit) -->
<svg xmlns="http://www.w3.org/2000/svg" xml:space="preserve" width="240px" height="144px" version="1.1" style="shape-rendering:geometricPrecision; text-rendering:geometricPrecision; image-rendering:optimizeQuality; fill-rule:evenodd; clip-rule:evenodd"
viewBox="0 0 240 144"
 xmlns:xlink="http://www.w3.org/1999/xlink"
 xmlns:xodm="http://www.corel.com/coreldraw/odm/2003">
 <defs>
  <style type="text/css">
   <![CDATA[
    .fil0 {fill:#2A2A2B}
   ]]>
  </style>
 </defs>
 <g id="Capa_x0020_1">
  <metadata id="CorelCorpID_0Corel-Layer"/>
  <path class="fil0" d="M199.445 126.879c-2.688,-1.029 -69.128,-0.371 -78.164,-0.367l-78.239 0.059c1.356,0.644 73.667,10.563 78.239,10.522 4.944,-0.044 14.333,-1.811 19.924,-2.561 6.455,-0.867 13.115,-1.843 19.356,-2.537l38.884 -5.116z"/>
  <path class="fil0" d="M62.289 61.09c-1.511,-3.512 1.269,-4.288 -9.184,-1.106l-8.934 2.777c-1.026,0.515 -1.197,0.695 -1.626,1.033 4.687,3.137 14.149,6.175 19.43,3.572 3.167,-1.561 10.109,-10.529 12.638,-13.755 3.024,-3.856 2.136,-3.818 8.444,-4.675 20.24,-2.748 54.81,-2.697 75.132,-0.078 5.477,0.705 5.608,0.356 8.762,4.163 8.182,9.876 12.05,18.304 22.006,14.821 3.522,-1.233 7.761,-2.371 10.361,-4.048 -0.545,-0.443 -0.429,-0.464 -1.663,-1.069l-15.862 -4.839c-3.188,1.881 0.389,1.144 -3.328,3.117 -1.317,-3.141 -5.301,-8.036 -7.513,-11.191 -4.801,-6.854 -3.686,-5.404 -13.314,-6.141 -24.43,-1.87 -49.825,-1.858 -74.251,0.067 -10.165,0.8 -7.771,-0.015 -12.729,6.695 -2.438,3.299 -5.556,8.782 -8.369,10.657z"/>
  <path class="fil0" d="M108.853 76.902c0.787,-0.986 0.331,-1.083 1.591,-1.623 -9.299,-0.332 -39.219,-6.174 -43.945,-5.095 -7.687,1.757 -34.256,7.937 -39.966,10.683 0.058,3.639 4.195,20.646 5.388,23.343l0.39 -19.976c8.764,-1.952 18.485,-3.11 27.241,-4.535 7.78,-1.267 7.252,-2.359 12.344,1.633 2.269,1.778 7.221,5.819 9.929,6.904l-4.519 -7.817 31.547 -3.517z"/>
  <path class="fil0" d="M131.349 75.38l0 1.34 33.187 3.455 -5.665 9.496c1.531,-1.584 6.695,-5.013 9.267,-6.963 4.458,-3.377 4.646,-4.683 12.127,-3.381 9.819,1.708 19.463,3.013 29.232,4.835l0.449 21.175 5.938 -24.464 -39.943 -10.571c-5.693,-1.417 -15.891,1.605 -22.343,2.594 -7.474,1.144 -14.624,1.816 -22.249,2.484z"/>
  <path class="fil0" d="M159.572 95.203c6.632,1.267 15.47,0.383 21.746,1.902 7.551,1.827 9.552,4.932 16.651,-0.719l-2.738 -8.053c-5.115,-0.569 -29.528,5.559 -35.659,6.87z"/>
  <path class="fil0" d="M43.807 96.332c6.579,4.974 8.593,3.234 15.606,1.106 4.757,-1.441 16.023,-1.472 21.788,-1.848l-16.351 -4.231c-4.775,-0.983 -13.487,-3.287 -18.294,-3.153l-2.749 8.126z"/>
  <path class="fil0" d="M117.814 11.367l-8.451 0.09c1.619,3.019 3.533,2.965 6.237,5.777l-2.297 8.663c3.619,-1.319 4.837,-3.535 7.962,-4.663 2.401,1.704 4.394,3.479 7.188,4.688l-2.277 -8.643c2.352,-2.129 5.687,-3.388 6.573,-5.982l-8.821 0.001 -2.795 -8.667 -3.319 8.736z"/>
  <path class="fil0" d="M163.956 16.376l-8.685 -1.902c1.393,3.416 3.122,4.424 4.725,7.416 -1.263,3.168 -3.264,4.46 -4.082,7.684l8.023 -2.806c4.267,3.63 2.498,4.429 6.439,6.335l-0.265 -8.859 7.838 -2.896 -3.87 -1.906c-1.782,-0.501 -2.329,-0.413 -3.926,-1.251l-1.087 -9.141c-1.786,2.598 -3.631,4.46 -5.11,7.326z"/>
  <path class="fil0" d="M72.249 18.019c-3.165,1.784 -5.703,1.095 -8.377,3.154l7.811 3.114 -0.065 9.107c2.807,-2.132 3.636,-4.447 6.191,-6.581l8.39 2.981 -4.313 -7.85c1.701,-3.258 3.318,-3.49 4.794,-7.337l-8.081 1.786c-2.239,-2.15 -3.453,-5.778 -5.887,-6.883l-0.463 8.509z"/>
  <path class="fil0" d="M206.666 33.31l-7.827 -4.128 2.931 8.212c-1.745,2.601 -3.572,2.84 -5.697,6.683l8.215 -0.589 3.935 7.87c2.026,-2.824 1.059,-5.562 3.058,-8.674l8.293 -1.004 -7.336 -4.95 1.495 -8.698 -7.067 5.278z"/>
  <path class="fil0" d="M29.812 36.605c-1.729,1.308 -1.73,1.061 -3.445,2.061 -0.899,0.523 -0.732,0.277 -1.495,0.936 -1.442,1.244 -0.666,0.212 -1.799,2.167l7.72 0.775 2.47 8.711 4.139 -7.567 8.421 0.396c-1.513,-3.029 -3.787,-4.415 -5.604,-6.673l3.122 -7.872 -8.109 3.883 -6.741 -5.735 1.321 8.918z"/>
  <path class="fil0" d="M108.853 76.902l8.752 -0.945 3.157 17.081 3.633 -17.079 6.954 0.761 0 -1.34 -20.905 -0.101c-1.26,0.54 -0.804,0.637 -1.591,1.623z"/>
  <path class="fil0" d="M43.965 101.218l5.882 5.762c2.981,-1.007 5.557,-2.38 8.485,-3.734l9.745 -3.844c-6.706,-0.133 -7.198,0.25 -12.817,2.254 -8.227,2.934 -4.533,0.688 -11.295,-0.438z"/>
  <path class="fil0" d="M191.881 106.875l6.177 -5.566c-6.823,1.311 -3.307,3.168 -11.459,0.352 -5.838,-2.016 -6.545,-2.659 -13.387,-2.112 2.594,1.237 6.411,1.869 9.216,3.129 3.13,1.406 6.028,3.066 9.453,4.197z"/>
 </g>
</svg>
