<?xml version="1.0" encoding="UTF-8"?>
<!DOCTYPE svg PUBLIC "-//W3C//DTD SVG 1.1//EN" "http://www.w3.org/Graphics/SVG/1.1/DTD/svg11.dtd">
<!-- Creator: CorelDRAW 2020 (64-Bit) -->
<svg xmlns="http://www.w3.org/2000/svg" xml:space="preserve" width="240px" height="38px" version="1.1" style="shape-rendering:geometricPrecision; text-rendering:geometricPrecision; image-rendering:optimizeQuality; fill-rule:evenodd; clip-rule:evenodd"
viewBox="0 0 240 38.4"
 xmlns:xlink="http://www.w3.org/1999/xlink"
 xmlns:xodm="http://www.corel.com/coreldraw/odm/2003">
 <defs>
  <style type="text/css">
   <![CDATA[
    .fil0 {fill:#D4AF37;fill-rule:nonzero}
   ]]>
  </style>
 </defs>
 <g id="Capa_x0020_1">
  <metadata id="CorelCorpID_0Corel-Layer"/>
  <path class="fil0" d="M4.891 26.941l0 -13.861 6.116 0 0 2.638 -3.051 0 0 2.355 2.922 0 0 2.617 -2.922 0 0 6.251 -3.065 0zm15.978 -8.605l0.505 0c0.466,0 0.781,-0.098 0.94,-0.291 0.159,-0.196 0.237,-0.588 0.237,-1.173 0,-0.491 -0.082,-0.836 -0.247,-1.045 -0.166,-0.207 -0.44,-0.312 -0.822,-0.312l-0.613 0 0 2.821zm-2.966 -5.256l4.103 0c1.309,0 2.229,0.308 2.767,0.927 0.534,0.616 0.801,1.701 0.801,3.254 0,0.734 -0.084,1.339 -0.253,1.823 -0.169,0.483 -0.413,0.808 -0.738,0.981l1.14 6.876 -3.213 0 -0.792 -6.251 -0.75 0 0 6.251 -3.065 0 0 -13.861zm14.774 13.861l0 -13.861 6.254 0 0 2.638 -3.189 0 0 2.355 3.071 0 0 2.617 -3.071 0 0 3.613 3.328 0 0 2.638 -6.393 0zm13.398 0l0 -13.861 6.254 0 0 2.638 -3.189 0 0 2.355 3.07 0 0 2.617 -3.07 0 0 3.613 3.328 0 0 2.638 -6.393 0zm13.398 -13.861l4.102 0c1.248,0 2.155,0.295 2.72,0.886 0.565,0.592 0.849,1.543 0.849,2.852l0 6.385c0,1.316 -0.281,2.266 -0.842,2.855 -0.562,0.588 -1.472,0.883 -2.727,0.883l-4.102 0 0 -13.861zm3.064 2.638l0 8.585 0.514 0c0.382,0 0.643,-0.071 0.781,-0.213 0.139,-0.143 0.207,-0.504 0.207,-1.083l0 -0.348 0 -5.635c0,-0.579 -0.068,-0.944 -0.207,-1.089 -0.138,-0.146 -0.399,-0.217 -0.781,-0.217l-0.514 0zm14.831 1.424l0 6.146c0,0.528 0.054,0.862 0.163,1.005 0.108,0.142 0.304,0.213 0.588,0.213 0.291,0 0.488,-0.075 0.592,-0.227 0.105,-0.152 0.159,-0.517 0.159,-1.092l0 -0.308 0 -6.045c0,-0.561 -0.054,-0.92 -0.162,-1.071 -0.108,-0.153 -0.304,-0.227 -0.589,-0.227 -0.291,0 -0.487,0.071 -0.591,0.21 -0.106,0.138 -0.16,0.466 -0.16,0.991l0 0.405zm-3.104 0.406c0,-1.711 0.294,-2.915 0.882,-3.609 0.589,-0.693 1.58,-1.041 2.973,-1.041 1.394,0 2.385,0.348 2.973,1.041 0.589,0.694 0.883,1.898 0.883,3.609l0 4.925c0,1.711 -0.294,2.915 -0.883,3.609 -0.588,0.693 -1.579,1.041 -2.973,1.041 -1.393,0 -2.384,-0.348 -2.973,-1.041 -0.588,-0.694 -0.882,-1.898 -0.882,-3.609l0 -4.925zm24.089 9.393l0 -10.533c-0.535,0.643 -0.917,1.313 -1.15,2.016 -0.234,0.704 -0.352,1.685 -0.352,2.939l0 0.771 0 4.807 -3.044 0 0 -5.578c0,-1.254 -0.119,-2.235 -0.352,-2.939 -0.233,-0.703 -0.615,-1.373 -1.15,-2.016l0 10.533 -3.064 0 0 -13.861 4.082 0c0.423,0.477 0.802,1.022 1.14,1.641 0.335,0.615 0.626,1.295 0.873,2.036 0.223,-0.721 0.503,-1.394 0.845,-2.016 0.338,-0.626 0.724,-1.177 1.154,-1.661l4.082 0 0 13.861 -3.064 0zm21.295 -9.799l0 6.146c0,0.528 0.054,0.862 0.162,1.005 0.108,0.142 0.305,0.213 0.589,0.213 0.291,0 0.487,-0.075 0.592,-0.227 0.104,-0.152 0.159,-0.517 0.159,-1.092l0 -0.308 0 -6.045c0,-0.561 -0.055,-0.92 -0.163,-1.071 -0.108,-0.153 -0.304,-0.227 -0.588,-0.227 -0.291,0 -0.487,0.071 -0.592,0.21 -0.105,0.138 -0.159,0.466 -0.159,0.991l0 0.405zm-3.105 0.406c0,-1.711 0.294,-2.915 0.883,-3.609 0.588,-0.693 1.579,-1.041 2.973,-1.041 1.393,0 2.384,0.348 2.973,1.041 0.588,0.694 0.883,1.898 0.883,3.609l0 4.925c0,1.711 -0.295,2.915 -0.883,3.609 -0.589,0.693 -1.58,1.041 -2.973,1.041 -1.394,0 -2.385,-0.348 -2.973,-1.041 -0.589,-0.694 -0.883,-1.898 -0.883,-3.609l0 -4.925zm14.977 -4.468l2.848 0c0.287,0.47 0.578,1.012 0.869,1.624 0.288,0.615 0.572,1.292 0.849,2.033l0 -3.657 3.044 0 0 13.861 -3.044 0 0 -2.716c0,-1.174 -0.125,-2.303 -0.375,-3.386 -0.25,-1.086 -0.626,-2.114 -1.127,-3.091l0 9.193 -3.064 0 0 -13.861zm29.697 13.861c-0.247,-0.514 -0.463,-1.015 -0.656,-1.502 -0.19,-0.484 -0.348,-0.957 -0.474,-1.42 -0.145,0.494 -0.311,0.984 -0.493,1.464 -0.18,0.484 -0.389,0.967 -0.63,1.458l-2.8 0c-0.768,-1.13 -1.319,-2.432 -1.661,-3.91 -0.341,-1.475 -0.511,-3.399 -0.511,-5.77l0 -4.181 3.024 0 0 3.985c0,2.08 0.061,3.615 0.179,4.609 0.119,0.995 0.315,1.864 0.592,2.612 0.285,-0.741 0.488,-1.617 0.609,-2.632 0.122,-1.011 0.183,-2.543 0.183,-4.589l0 -3.985 3.003 0 0 3.985c0,1.954 0.061,3.46 0.183,4.515 0.122,1.059 0.325,1.958 0.609,2.706 0.284,-0.761 0.487,-1.647 0.609,-2.662 0.121,-1.012 0.182,-2.534 0.182,-4.559l0 -3.985 3.004 0 0 4.181c0,2.371 -0.17,4.295 -0.511,5.77 -0.341,1.478 -0.893,2.78 -1.661,3.91l-2.78 0zm11.93 -13.861l3.064 0 0 4.952 1.42 0 0 -4.952 3.065 0 0 13.861 -3.065 0 0 -6.372 -1.42 0 0 6.372 -3.064 0 0 -13.861zm14.953 13.861l0 -13.861 6.254 0 0 2.638 -3.19 0 0 2.355 3.071 0 0 2.617 -3.071 0 0 3.613 3.329 0 0 2.638 -6.393 0zm13.398 0l0 -13.861 6.254 0 0 2.638 -3.19 0 0 2.355 3.071 0 0 2.617 -3.071 0 0 3.613 3.328 0 0 2.638 -6.392 0zm13.397 -13.861l3.065 0 0 11.223 3.165 0 0 2.638 -6.23 0 0 -13.861zm17.311 4.505l0 -0.791c0,-0.43 -0.074,-0.748 -0.227,-0.951 -0.152,-0.206 -0.388,-0.307 -0.706,-0.307 -0.237,0 -0.427,0.067 -0.572,0.203 -0.145,0.135 -0.22,0.318 -0.22,0.551 0,0.433 0.734,1.235 2.199,2.394 0.277,0.22 0.493,0.39 0.646,0.508 0.632,0.494 1.089,1.045 1.366,1.651 0.277,0.605 0.416,1.359 0.416,2.266 0,1.339 -0.321,2.343 -0.961,3.013 -0.642,0.667 -1.606,1.001 -2.895,1.001 -1.336,0 -2.313,-0.321 -2.939,-0.967 -0.626,-0.642 -0.937,-1.661 -0.937,-3.047l0 -1.688 3.105 0 0 1.546c0,0.544 0.065,0.937 0.193,1.177 0.129,0.24 0.335,0.362 0.619,0.362 0.23,0 0.409,-0.092 0.538,-0.274 0.128,-0.179 0.193,-0.433 0.193,-0.758 0,-0.457 -0.099,-0.863 -0.291,-1.214 -0.196,-0.355 -0.606,-0.802 -1.232,-1.343 -0.104,-0.095 -0.26,-0.227 -0.466,-0.399 -1.759,-1.492 -2.639,-2.875 -2.639,-4.15 0,-1.12 0.332,-1.979 0.995,-2.584 0.666,-0.606 1.61,-0.907 2.841,-0.907 1.353,0 2.32,0.288 2.902,0.866 0.582,0.578 0.873,1.563 0.873,2.953l0 0.889 -2.801 0z"/>
 </g>
</svg>
