<?xml version="1.0" encoding="UTF-8"?>
<!DOCTYPE svg PUBLIC "-//W3C//DTD SVG 1.1//EN" "http://www.w3.org/Graphics/SVG/1.1/DTD/svg11.dtd">
<!-- Creator: CorelDRAW 2020 (64-Bit) -->
<svg xmlns="http://www.w3.org/2000/svg" xml:space="preserve" width="288px" height="96px" version="1.1" style="shape-rendering:geometricPrecision; text-rendering:geometricPrecision; image-rendering:optimizeQuality; fill-rule:evenodd; clip-rule:evenodd"
viewBox="0 0 288 96"
 xmlns:xlink="http://www.w3.org/1999/xlink"
 xmlns:xodm="http://www.corel.com/coreldraw/odm/2003">
 <defs>
  <style type="text/css">
   <![CDATA[
    .fil0 {fill:#F3C02F;fill-rule:nonzero}
   ]]>
  </style>
 </defs>
 <g id="Capa_x0020_1">
  <metadata id="CorelCorpID_0Corel-Layer"/>
  <path class="fil0" d="M41.982 57.324l-7.66 0 -9.263 -8.684 -5.077 0 0 8.684 -5.255 0 0 -22.98 19.684 0c3.444,0 5.166,1.485 5.166,4.454l0 5.388c0,2.227 -0.891,3.608 -2.672,4.142 -0.683,0.208 -2.523,0.312 -5.522,0.312l10.599 8.684zm-7.571 -14.429l0 -2.761c0,-0.772 -0.223,-1.277 -0.668,-1.514 -0.326,-0.208 -0.905,-0.312 -1.737,-0.312l-12.024 0 0 6.413 12.024 0c0.832,0 1.411,-0.104 1.737,-0.312 0.445,-0.237 0.668,-0.742 0.668,-1.514zm37.41 9.976c0,1.781 -0.357,2.969 -1.069,3.563 -0.713,0.593 -1.99,0.89 -3.83,0.89l-14.563 0c-1.841,0 -3.118,-0.289 -3.83,-0.868 -0.713,-0.579 -1.069,-1.774 -1.069,-3.585l0 -9.931c0,-1.812 0.356,-3.007 1.069,-3.586 0.712,-0.578 1.989,-0.868 3.83,-0.868l14.563 0c1.84,0 3.117,0.29 3.83,0.868 0.712,0.579 1.069,1.774 1.069,3.586l0 9.931zm-4.587 0.846l0 -11.757 -15.187 0 0 11.757 15.187 0zm32.956 -15.231l-10.243 10.288 0 8.55 -4.587 0 0 -8.461 -10.288 -10.377 6.19 0 6.725 7.037 6.814 -7.037 5.389 0zm26.053 18.838l-5.166 0 -2.361 -4.141 -12.469 0 -2.361 4.141 -4.587 0 11.178 -18.838 4.41 0 11.356 18.838zm-9.397 -7.571l-4.409 -7.838 -4.231 7.838 8.64 0zm33.49 7.571l-19.417 0 0 -18.838 4.632 0 0 15.32 14.785 0 0 3.518zm51.35 0l-7.661 0 -9.263 -8.684 -5.077 0 0 8.684 -5.255 0 0 -22.98 19.685 0c3.444,0 5.166,1.485 5.166,4.454l0 5.388c0,2.227 -0.891,3.608 -2.672,4.142 -0.683,0.208 -2.524,0.312 -5.523,0.312l10.6 8.684zm-7.571 -14.429l0 -2.761c0,-0.772 -0.223,-1.277 -0.668,-1.514 -0.327,-0.208 -0.906,-0.312 -1.737,-0.312l-12.025 0 0 6.413 12.025 0c0.831,0 1.41,-0.104 1.737,-0.312 0.445,-0.237 0.668,-0.742 0.668,-1.514zm18.927 14.429l-4.587 0 0 -18.838 4.587 0 0 18.838zm32.377 -9.485c0,6.324 -4.156,9.485 -12.47,9.485l-11.534 0 0 -18.838 12.692 0c3.355,0 6.012,0.698 7.972,2.093 2.227,1.633 3.34,4.053 3.34,7.26zm-4.721 -0.223c0,-3.83 -2.182,-5.745 -6.546,-5.745l-8.106 0 0 11.935 5.924 0c2.82,0 4.854,-0.326 6.101,-0.98 1.752,-0.95 2.627,-2.686 2.627,-5.21zm32.066 9.708l-20.442 0 0 -18.838 20.219 0 0 3.34 -15.587 0 0 4.098 9.085 0 0 3.251 -9.085 0 0 4.631 15.81 0 0 3.518z"/>
 </g>
</svg>
