<?xml version="1.0" encoding="UTF-8"?>
<!DOCTYPE svg PUBLIC "-//W3C//DTD SVG 1.1//EN" "http://www.w3.org/Graphics/SVG/1.1/DTD/svg11.dtd">
<!-- Creator: CorelDRAW 2020 (64-Bit) -->
<svg xmlns="http://www.w3.org/2000/svg" xml:space="preserve" width="816px" height="288px" version="1.1" style="shape-rendering:geometricPrecision; text-rendering:geometricPrecision; image-rendering:optimizeQuality; fill-rule:evenodd; clip-rule:evenodd"
viewBox="0 0 816 288"
 xmlns:xlink="http://www.w3.org/1999/xlink"
 xmlns:xodm="http://www.corel.com/coreldraw/odm/2003">
 <defs>
  <style type="text/css">
   <![CDATA[
    .fil0 {fill:#D4AF37}
    .fil1 {fill:#D4AF37;fill-rule:nonzero}
   ]]>
  </style>
 </defs>
 <g id="Capa_x0020_1">
  <metadata id="CorelCorpID_0Corel-Layer"/>
  <g id="_2028384972656">
   <path class="fil0" d="M495.419 246.992c-3.132,-1.199 -80.524,-0.432 -91.049,-0.427l-91.137 0.068c1.58,0.75 85.811,12.305 91.137,12.257 5.758,-0.052 16.695,-2.11 23.208,-2.984 7.52,-1.009 15.278,-2.146 22.547,-2.954l45.294 -5.96z"/>
   <path class="fil0" d="M335.653 139.986c-1.76,-4.092 1.478,-4.996 -10.698,-1.289l-10.406 3.234c-1.196,0.601 -1.394,0.81 -1.894,1.204 5.459,3.654 16.481,7.193 22.633,4.161 3.688,-1.819 11.774,-12.265 14.721,-16.023 3.522,-4.492 2.488,-4.447 9.836,-5.445 23.576,-3.202 63.845,-3.142 87.517,-0.092 6.38,0.822 6.532,0.416 10.206,4.85 9.531,11.504 14.037,21.321 25.634,17.264 4.102,-1.436 9.04,-2.762 12.069,-4.715 -0.635,-0.516 -0.499,-0.541 -1.938,-1.246l-18.476 -5.636c-3.713,2.191 0.453,1.333 -3.876,3.63 -1.535,-3.659 -6.176,-9.36 -8.752,-13.036 -5.593,-7.983 -4.294,-6.294 -15.509,-7.153 -28.458,-2.178 -58.038,-2.164 -86.491,0.078 -11.841,0.933 -9.052,-0.017 -14.828,7.8 -2.839,3.843 -6.471,10.229 -9.748,12.414z"/>
   <path class="fil0" d="M389.893 158.403c0.916,-1.147 0.386,-1.26 1.854,-1.89 -10.832,-0.387 -45.685,-7.192 -51.19,-5.934 -8.954,2.045 -39.903,9.244 -46.555,12.443 0.069,4.239 4.888,24.049 6.277,27.191l0.455 -23.269c10.208,-2.274 21.532,-3.622 31.731,-5.282 9.063,-1.476 8.447,-2.748 14.38,1.902 2.642,2.072 8.41,6.779 11.564,8.042l-5.263 -9.106 36.747 -4.097z"/>
   <path class="fil0" d="M416.097 156.631l0 1.561 38.659 4.025 -6.6 11.06c1.784,-1.844 7.799,-5.839 10.795,-8.11 5.192,-3.935 5.411,-5.455 14.126,-3.939 11.438,1.99 22.671,3.51 34.051,5.632l0.523 24.666 6.916 -28.497 -46.527 -12.314c-6.632,-1.65 -18.51,1.871 -26.026,3.022 -8.706,1.333 -17.035,2.116 -25.917,2.894z"/>
   <path class="fil0" d="M448.972 179.721c7.726,1.476 18.021,0.447 25.332,2.216 8.795,2.128 11.126,5.745 19.396,-0.837l-3.19 -9.381c-5.958,-0.663 -34.395,6.475 -41.538,8.002z"/>
   <path class="fil0" d="M314.125 181.037c7.664,5.794 10.009,3.766 18.179,1.289 5.54,-1.68 18.664,-1.716 25.378,-2.154l-19.045 -4.928c-5.563,-1.146 -15.712,-3.83 -21.31,-3.673l-3.202 9.466z"/>
   <path class="fil0" d="M400.331 82.065l-9.844 0.106c1.887,3.516 4.116,3.452 7.265,6.729l-2.675 10.091c4.216,-1.536 5.633,-4.118 9.274,-5.432 2.797,1.985 5.118,4.053 8.373,5.461l-2.652 -10.068c2.739,-2.48 6.624,-3.947 7.657,-6.968l-10.276 0.001 -3.256 -10.096 -3.866 10.176z"/>
   <path class="fil0" d="M454.079 87.9l-10.116 -2.216c1.622,3.979 3.637,5.154 5.504,8.639 -1.471,3.69 -3.802,5.195 -4.755,8.951l9.346 -3.269c4.969,4.229 2.909,5.159 7.5,7.38l-0.309 -10.32 9.131 -3.374 -4.509 -2.219c-2.076,-0.584 -2.713,-0.482 -4.573,-1.458l-1.266 -10.647c-2.081,3.026 -4.23,5.195 -5.953,8.533z"/>
   <path class="fil0" d="M347.255 89.814c-3.687,2.078 -6.643,1.276 -9.758,3.673l9.099 3.628 -0.076 10.608c3.269,-2.483 4.235,-5.18 7.212,-7.665l9.773 3.472 -5.024 -9.145c1.981,-3.794 3.865,-4.064 5.584,-8.545l-9.413 2.08c-2.608,-2.505 -4.023,-6.73 -6.857,-8.017l-0.54 9.911z"/>
   <path class="fil0" d="M503.83 107.626l-9.117 -4.808 3.414 9.564c-2.033,3.031 -4.161,3.309 -6.636,7.785l9.569 -0.686 4.584 9.168c2.36,-3.29 1.233,-6.479 3.562,-10.103l9.66 -1.171 -8.545 -5.766 1.742 -10.131 -8.233 6.148z"/>
   <path class="fil0" d="M297.822 111.464c-2.013,1.523 -2.014,1.235 -4.013,2.4 -1.047,0.61 -0.852,0.323 -1.741,1.091 -1.679,1.449 -0.775,0.247 -2.096,2.524l8.993 0.903 2.877 10.147 4.821 -8.814 9.81 0.461c-1.763,-3.528 -4.412,-5.143 -6.528,-7.774l3.637 -9.169 -9.446 4.523 -7.852 -6.681 1.538 10.389z"/>
   <path class="fil0" d="M389.893 158.403l10.194 -1.101 3.678 19.898 4.232 -19.894 8.1 0.886 0 -1.561 -24.35 -0.118c-1.468,0.63 -0.938,0.743 -1.854,1.89z"/>
   <path class="fil0" d="M314.309 186.728l6.852 6.712c3.472,-1.173 6.473,-2.773 9.883,-4.35l11.352 -4.477c-7.812,-0.155 -8.386,0.291 -14.93,2.625 -9.584,3.418 -5.281,0.801 -13.157,-0.51z"/>
   <path class="fil0" d="M486.609 193.318l7.194 -6.484c-7.947,1.527 -3.852,3.69 -13.348,0.41 -6.8,-2.349 -7.623,-3.097 -15.594,-2.46 3.022,1.441 7.468,2.177 10.736,3.645 3.646,1.638 7.021,3.571 11.012,4.889z"/>
   <path class="fil1" d="M299.658 68.211l-7.017 4.787 -13.913 -2.168 -4.651 3.173 5.427 7.956 -4.815 3.283 -14.359 -21.052 18.033 -12.3c3.155,-2.153 5.661,-1.868 7.516,0.851l3.367 4.937c1.391,2.04 1.438,3.861 0.14,5.464 -0.496,0.617 -2.117,1.863 -4.864,3.737l15.136 1.332zm-15.952 -8.488l-1.725 -2.529c-0.483,-0.708 -1.002,-1.031 -1.559,-0.97 -0.429,0.013 -1.024,0.28 -1.785,0.8l-11.016 7.513 4.007 5.875 11.016 -7.513c0.761,-0.52 1.227,-0.977 1.396,-1.371 0.26,-0.496 0.148,-1.098 -0.334,-1.805zm46.145 -7.759c0.703,1.846 0.803,3.217 0.299,4.114 -0.503,0.896 -1.709,1.708 -3.616,2.436l-15.09 5.753c-1.907,0.727 -3.344,0.931 -4.312,0.613 -0.967,-0.319 -1.808,-1.416 -2.524,-3.293l-3.923 -10.29c-0.715,-1.877 -0.818,-3.256 -0.309,-4.138 0.51,-0.881 1.719,-1.685 3.626,-2.412l15.09 -5.754c1.907,-0.727 3.345,-0.931 4.311,-0.613 0.967,0.319 1.809,1.416 2.525,3.293l3.923 10.291zm-4.419 2.689l-4.645 -12.183 -15.736 5.999 4.645 12.183 15.736 -5.999zm31.97 -25.463l-8.352 13.763 2.233 9.215 -4.944 1.198 -2.21 -9.119 -13.797 -8.497 6.671 -1.617 9.086 5.828 5.506 -9.363 5.807 -1.408zm33.896 17.354l-5.685 0.703 -3.162 -4.236 -13.724 1.697 -2.033 4.88 -5.049 0.625 9.738 -22.255 4.852 -0.6 15.063 19.186zm-11.373 -7.053l-5.919 -8.026 -3.589 9.202 9.508 -1.176zm38.326 7.092l-21.53 0.291 -0.283 -20.888 5.136 -0.07 0.229 16.988 16.395 -0.222 0.053 3.901zm56.355 6.914l-8.358 -1.516 -8.388 -11.31 -5.54 -1.005 -1.719 9.475 -5.734 -1.04 4.549 -25.074 21.479 3.897c3.757,0.682 5.342,2.643 4.755,5.882l-1.067 5.88c-0.441,2.43 -1.686,3.76 -3.736,3.99 -0.786,0.092 -2.815,-0.159 -6.087,-0.753l9.846 11.574zm-5.404 -17.243l0.546 -3.013c0.153,-0.842 0.01,-1.437 -0.429,-1.784 -0.315,-0.291 -0.926,-0.519 -1.833,-0.684l-13.12 -2.381 -1.27 6.998 13.12 2.38c0.907,0.165 1.559,0.166 1.957,0.004 0.533,-0.171 0.876,-0.678 1.029,-1.52zm17.253 21.161l-4.905 -1.347 5.531 -20.145 4.905 1.347 -5.531 20.145zm37.883 3.322c-2.723,6.463 -8.332,7.905 -16.828,4.327l-11.788 -4.966 8.11 -19.252 12.971 5.464c3.429,1.444 5.844,3.301 7.246,5.571 1.573,2.627 1.669,5.58 0.289,8.856zm-4.729 -2.26c1.649,-3.913 0.243,-6.81 -4.218,-8.689l-8.283 -3.489 -5.138 12.198 6.054 2.549c2.882,1.215 5.101,1.756 6.657,1.626 2.199,-0.218 3.841,-1.615 4.928,-4.195zm25.708 28.542l-18.727 -12.773 11.772 -17.258 18.523 12.634 -2.088 3.061 -14.28 -9.741 -2.559 3.754 8.323 5.677 -2.032 2.978 -8.323 -5.677 -2.894 4.243 14.484 9.879 -2.199 3.223z"/>
   <path class="fil1" d="M257.166 232.034l0 -17.773 7.842 0 0 3.383 -3.913 0 0 3.018 3.748 0 0 3.357 -3.748 0 0 8.015 -3.929 0zm20.488 -11.033l0.646 0c0.599,0 1.002,-0.126 1.206,-0.373 0.204,-0.252 0.304,-0.755 0.304,-1.505 0,-0.629 -0.105,-1.071 -0.317,-1.341 -0.212,-0.264 -0.564,-0.399 -1.054,-0.399l-0.785 0 0 3.618zm-3.803 -6.74l5.26 0c1.679,0 2.858,0.395 3.548,1.188 0.685,0.789 1.028,2.182 1.028,4.173 0,0.941 -0.108,1.717 -0.325,2.337 -0.217,0.62 -0.529,1.037 -0.946,1.258l1.462 8.817 -4.12 0 -1.015 -8.015 -0.963 0 0 8.015 -3.929 0 0 -17.773zm18.944 17.773l0 -17.773 8.019 0 0 3.383 -4.09 0 0 3.018 3.938 0 0 3.357 -3.938 0 0 4.632 4.268 0 0 3.383 -8.197 0zm17.178 0l0 -17.773 8.019 0 0 3.383 -4.089 0 0 3.018 3.938 0 0 3.357 -3.938 0 0 4.632 4.267 0 0 3.383 -8.197 0zm17.179 -17.773l5.261 0c1.6,0 2.763,0.377 3.487,1.136 0.724,0.759 1.088,1.978 1.088,3.656l0 8.188c0,1.688 -0.359,2.906 -1.079,3.661 -0.72,0.755 -1.887,1.132 -3.496,1.132l-5.261 0 0 -17.773zm3.929 3.383l0 11.007 0.66 0c0.49,0 0.824,-0.091 1.001,-0.273 0.178,-0.182 0.265,-0.646 0.265,-1.388l0 -0.447 0 -7.225c0,-0.742 -0.087,-1.21 -0.265,-1.397 -0.177,-0.186 -0.511,-0.277 -1.001,-0.277l-0.66 0zm19.018 1.826l0 7.88c0,0.676 0.07,1.106 0.208,1.288 0.139,0.182 0.391,0.273 0.755,0.273 0.373,0 0.625,-0.095 0.759,-0.29 0.135,-0.195 0.204,-0.664 0.204,-1.401l0 -0.395 0 -7.75c0,-0.72 -0.069,-1.18 -0.208,-1.375 -0.139,-0.195 -0.39,-0.291 -0.755,-0.291 -0.373,0 -0.625,0.091 -0.759,0.269 -0.134,0.178 -0.204,0.599 -0.204,1.271l0 0.521zm-3.981 0.52c0,-2.194 0.377,-3.739 1.132,-4.628 0.755,-0.889 2.025,-1.335 3.812,-1.335 1.787,0 3.058,0.446 3.812,1.335 0.755,0.889 1.132,2.434 1.132,4.628l0 6.315c0,2.194 -0.377,3.738 -1.132,4.627 -0.754,0.889 -2.025,1.336 -3.812,1.336 -1.787,0 -3.057,-0.447 -3.812,-1.336 -0.755,-0.889 -1.132,-2.433 -1.132,-4.627l0 -6.315zm30.888 12.044l0 -13.505c-0.685,0.823 -1.175,1.682 -1.475,2.584 -0.299,0.902 -0.451,2.16 -0.451,3.769l0 0.989 0 6.163 -3.903 0 0 -7.152c0,-1.609 -0.152,-2.867 -0.451,-3.769 -0.299,-0.902 -0.789,-1.761 -1.475,-2.584l0 13.505 -3.929 0 0 -17.773 5.235 0c0.542,0.611 1.028,1.31 1.462,2.103 0.429,0.79 0.802,1.661 1.118,2.611 0.286,-0.923 0.647,-1.787 1.085,-2.585 0.433,-0.802 0.927,-1.509 1.479,-2.129l5.234 0 0 17.773 -3.929 0zm27.305 -12.564l0 7.88c0,0.676 0.07,1.106 0.208,1.288 0.139,0.182 0.391,0.273 0.755,0.273 0.373,0 0.625,-0.095 0.759,-0.29 0.135,-0.195 0.204,-0.664 0.204,-1.401l0 -0.395 0 -7.75c0,-0.72 -0.069,-1.18 -0.208,-1.375 -0.139,-0.195 -0.39,-0.291 -0.755,-0.291 -0.373,0 -0.625,0.091 -0.759,0.269 -0.134,0.178 -0.204,0.599 -0.204,1.271l0 0.521zm-3.981 0.52c0,-2.194 0.377,-3.739 1.132,-4.628 0.755,-0.889 2.025,-1.335 3.812,-1.335 1.787,0 3.058,0.446 3.812,1.335 0.755,0.889 1.132,2.434 1.132,4.628l0 6.315c0,2.194 -0.377,3.738 -1.132,4.627 -0.754,0.889 -2.025,1.336 -3.812,1.336 -1.787,0 -3.057,-0.447 -3.812,-1.336 -0.755,-0.889 -1.132,-2.433 -1.132,-4.627l0 -6.315zm19.204 -5.729l3.652 0c0.368,0.602 0.741,1.296 1.114,2.081 0.369,0.79 0.733,1.657 1.089,2.607l0 -4.688 3.903 0 0 17.773 -3.903 0 0 -3.483c0,-1.505 -0.16,-2.953 -0.481,-4.341 -0.322,-1.392 -0.803,-2.711 -1.445,-3.964l0 11.788 -3.929 0 0 -17.773zm38.078 17.773c-0.316,-0.659 -0.594,-1.301 -0.841,-1.926 -0.243,-0.62 -0.447,-1.227 -0.607,-1.821 -0.187,0.633 -0.399,1.262 -0.633,1.878 -0.23,0.62 -0.499,1.24 -0.807,1.869l-3.591 0c-0.985,-1.449 -1.692,-3.119 -2.13,-5.014 -0.438,-1.891 -0.655,-4.358 -0.655,-7.398l0 -5.361 3.878 0 0 5.109c0,2.667 0.078,4.636 0.23,5.911 0.151,1.275 0.403,2.39 0.758,3.348 0.365,-0.95 0.625,-2.073 0.781,-3.374 0.156,-1.296 0.234,-3.261 0.234,-5.885l0 -5.109 3.852 0 0 5.109c0,2.507 0.078,4.437 0.234,5.79 0.156,1.357 0.416,2.511 0.78,3.469 0.365,-0.976 0.625,-2.112 0.781,-3.413 0.156,-1.297 0.234,-3.248 0.234,-5.846l0 -5.109 3.852 0 0 5.361c0,3.04 -0.217,5.507 -0.655,7.398 -0.438,1.895 -1.145,3.565 -2.13,5.014l-3.565 0zm15.297 -17.773l3.929 0 0 6.349 1.822 0 0 -6.349 3.929 0 0 17.773 -3.929 0 0 -8.171 -1.822 0 0 8.171 -3.929 0 0 -17.773zm19.174 17.773l0 -17.773 8.019 0 0 3.383 -4.09 0 0 3.018 3.938 0 0 3.357 -3.938 0 0 4.632 4.268 0 0 3.383 -8.197 0zm17.178 0l0 -17.773 8.02 0 0 3.383 -4.09 0 0 3.018 3.938 0 0 3.357 -3.938 0 0 4.632 4.268 0 0 3.383 -8.198 0zm17.179 -17.773l3.929 0 0 14.39 4.06 0 0 3.383 -7.989 0 0 -17.773zm22.197 5.777l0 -1.015c0,-0.551 -0.095,-0.959 -0.291,-1.219 -0.195,-0.264 -0.498,-0.395 -0.906,-0.395 -0.303,0 -0.547,0.087 -0.733,0.261 -0.187,0.173 -0.282,0.407 -0.282,0.707 0,0.555 0.941,1.583 2.819,3.07 0.356,0.282 0.633,0.499 0.828,0.651 0.812,0.633 1.397,1.34 1.753,2.116 0.355,0.777 0.533,1.744 0.533,2.906 0,1.718 -0.412,3.006 -1.231,3.864 -0.824,0.855 -2.061,1.284 -3.713,1.284 -1.713,0 -2.967,-0.412 -3.769,-1.24 -0.802,-0.824 -1.201,-2.13 -1.201,-3.908l0 -2.164 3.981 0 0 1.982c0,0.698 0.083,1.201 0.247,1.509 0.165,0.308 0.43,0.464 0.794,0.464 0.295,0 0.525,-0.117 0.689,-0.351 0.166,-0.23 0.248,-0.555 0.248,-0.972 0,-0.585 -0.126,-1.105 -0.373,-1.556 -0.252,-0.456 -0.776,-1.028 -1.579,-1.722 -0.134,-0.122 -0.334,-0.291 -0.598,-0.512 -2.256,-1.913 -3.383,-3.687 -3.383,-5.322 0,-1.435 0.425,-2.537 1.275,-3.313 0.854,-0.776 2.065,-1.162 3.643,-1.162 1.735,0 2.975,0.368 3.721,1.11 0.746,0.742 1.119,2.004 1.119,3.786l0 1.141 -3.591 0z"/>
  </g>
 </g>
</svg>
